<svg xmlns="http://www.w3.org/2000/svg" xmlns:xlink="http://www.w3.org/1999/xlink" width="500" zoomAndPan="magnify" viewBox="0 0 375 374.999991" height="500" preserveAspectRatio="xMidYMid meet" version="1.0"><defs><clipPath id="509d96f074"><path d="M 31.453125 84.992188 L 343.453125 84.992188 L 343.453125 289.742188 L 31.453125 289.742188 Z M 31.453125 84.992188 " clip-rule="nonzero"/></clipPath></defs><g clip-path="url(#509d96f074)"><path fill="#ffffff" d="M 120.820312 233.53125 C 108.40625 233.53125 97.125 231.433594 86.96875 227.230469 C 83.398438 225.753906 80.015625 224.078125 76.828125 222.210938 C 79.507812 227.121094 82.753906 231.5625 86.523438 235.484375 C 92.210938 241.390625 99.324219 246.136719 107.652344 249.585938 C 115.941406 253.011719 125.386719 254.777344 135.722656 254.832031 L 194.597656 254.832031 L 185.261719 233.53125 Z M 303.832031 84.996094 L 281.027344 84.996094 L 259.886719 134.890625 L 270.875 160.460938 Z M 31.449219 187.777344 C 31.449219 173.324219 33.988281 159.808594 39.054688 147.21875 C 44.125 134.628906 51.300781 123.742188 60.59375 114.566406 C 69.886719 105.394531 80.960938 98.171875 93.816406 92.902344 C 104.378906 88.570312 115.792969 86.023438 128.0625 85.25 C 130.734375 85.078125 133.441406 84.996094 136.191406 84.996094 L 166.988281 84.996094 L 243.578125 263.234375 L 320.734375 84.996094 L 343.539062 84.996094 L 253.71875 289.964844 L 232.878906 289.964844 L 152.386719 106.292969 L 136.214844 106.292969 C 123.804688 106.292969 112.523438 108.34375 102.367188 112.449219 C 92.210938 116.550781 83.609375 122.269531 76.554688 129.59375 C 69.503906 136.917969 64.046875 145.46875 60.191406 155.238281 C 56.335938 165.003906 54.410156 175.65625 54.410156 187.1875 C 54.410156 198.519531 56.335938 209.164062 60.191406 219.132812 C 64.046875 229.09375 69.503906 237.742188 76.554688 245.070312 C 83.609375 252.398438 92.210938 258.160156 102.367188 262.363281 C 112.523438 266.566406 123.804688 268.660156 136.214844 268.660156 L 200.65625 268.660156 L 209.988281 289.964844 L 136.191406 289.964844 C 120.800781 289.964844 106.675781 287.375 93.816406 282.199219 C 80.960938 277.027344 69.886719 269.851562 60.59375 260.679688 C 51.300781 251.503906 44.125 240.671875 39.054688 228.179688 C 33.988281 215.683594 31.449219 202.21875 31.449219 187.777344 " fill-opacity="1" fill-rule="nonzero"/></g></svg>